<svg width="121" height="119" viewBox="0 0 121 119" fill="none" xmlns="http://www.w3.org/2000/svg">
<g clip-path="url(#clip0_13_328)">
<path d="M27.7536 89.7024L14.3539 119H20.7195L23.0689 113.197H35.0651L37.3895 119H43.7524L30.3526 89.7024H27.7564H27.7536ZM24.7553 109.028L29.0989 98.3052L33.3926 109.028H24.7553Z" fill="white"/>
<path d="M51.9016 87.6935H47.006V119H51.9016V87.6935Z" fill="white"/>
<path d="M62.9631 87.6935H58.0675V119H62.9631V87.6935Z" fill="white"/>
<path d="M69.7947 94.0827C70.3328 94.3898 70.9069 94.542 71.556 94.542C72.524 94.542 73.3367 94.2016 74.0357 93.5043C74.7374 92.807 75.0758 92.0267 75.0758 91.1191C75.0758 90.1562 74.7374 89.3648 74.0412 88.6952C73.3395 88.0228 72.5268 87.6963 71.556 87.6963C70.918 87.6963 70.3244 87.8512 69.7947 88.1556C69.2621 88.4628 68.8294 88.8806 68.5104 89.398C68.1942 89.9099 68.0361 90.4883 68.0361 91.1219C68.0361 91.7002 68.197 92.2675 68.516 92.8098C68.835 93.3549 69.2649 93.7838 69.7947 94.0882V94.0827Z" fill="white"/>
<path d="M67.3177 101.324H69.129V119H73.9802V101.324H75.7914V97.2897H67.3177V101.324Z" fill="white"/>
<path d="M93.2352 89.7024H90.639L77.2393 119H83.6049L85.9542 113.197H97.9505L100.275 119H106.638L93.238 89.7024H93.2352ZM87.6406 109.028L91.9843 98.3052L96.278 109.028H87.6406Z" fill="white"/>
<path d="M67.8115 74.1073L66.2027 70.5904L62.7689 78.1002C63.3375 78.5401 64.0448 78.7891 64.7937 78.7891C66.7103 78.7891 68.1138 77.223 68.1138 75.4825C68.1138 75.026 68.0195 74.5611 67.8115 74.1073ZM64.1474 66.0911L60.5 58.1192L56.8526 66.0911L60.5 74.063L64.1474 66.0939V66.0911ZM65.8172 0C64.5191 0 63.3375 0.755406 62.7994 1.93694L60.5 6.96191L56.8554 14.9366L54.1787 20.7861L53.6295 21.9815L34.4938 0L1.29809 0.0166023L0 2.85837L21.7652 27.8615L50.9474 27.8477L48.8005 32.5406L21.7652 40.4903L7.99104 70.6208L10.0436 72.9811L41.8829 63.6146L48.8005 48.4871L53.9014 59.6411L56.8498 66.0911L60.4972 58.1192L52.4452 40.5125L59.5902 24.8897L60.3031 23.3318L60.4972 22.9057L64.1446 14.931L68.8322 4.68186C69.8335 2.49035 68.2303 0 65.8144 0L65.8172 0ZM24.7914 21.2427L12.0712 6.62987L31.4704 6.6188L44.1906 21.2316L24.7914 21.2427ZM37.1038 58.122L18.4951 63.5952L26.5471 45.9857L45.1531 40.5125L37.1038 58.122Z" fill="#3DFFB5"/>
<path d="M58.2005 1.93694C57.6624 0.755406 56.4808 0 55.1827 0C52.7669 0 51.1637 2.49035 52.165 4.68186L56.8553 14.9366L60.4999 6.96191L58.2005 1.93694ZM72.1994 32.5406L70.0526 27.8477L99.2347 27.8615L121 2.85837L119.702 0.0166023L86.5062 0L67.3704 21.9815L66.2054 19.4303L62.558 27.4049L68.552 40.5125L60.9437 57.1535L60.5027 58.1192L56.8553 66.0911L53.1912 74.1073C52.1872 76.2988 53.7931 78.7891 56.209 78.7891C57.5071 78.7891 58.6859 78.0337 59.2268 76.855L60.5027 74.063L62.0671 70.6402H62.0699L64.1501 66.0939L72.2022 48.4871L79.1198 63.6146L110.959 72.9811L113.012 70.6208L99.2375 40.4903L72.2022 32.5406H72.1994ZM89.5295 6.6188L108.929 6.62987L96.2086 21.2427L76.8093 21.2316L89.5295 6.6188ZM83.8961 58.122L75.8468 40.5125L94.4528 45.9857L102.505 63.5952L83.8961 58.122Z" fill="#6B71FD"/>
</g>
<defs>
<clipPath id="clip0_13_328">
<rect width="121" height="119" fill="white"/>
</clipPath>
</defs>
</svg>
