<svg width="109" height="27" viewBox="0 0 109 27" fill="none" xmlns="http://www.w3.org/2000/svg">
<path d="M18.21 25.3956L18.7608 24.1904L19.9365 26.7639C19.7418 26.9146 19.4996 27 19.2432 27C18.587 27 18.1065 26.4633 18.1065 25.8668C18.1065 25.7104 18.1388 25.5511 18.21 25.3956ZM19.4645 22.6485L20.7133 19.9167L21.962 22.6485L20.7133 25.3804L19.4645 22.6495V22.6485ZM18.8928 0C19.3372 0 19.7418 0.258868 19.926 0.663763L20.7133 2.38575L21.9611 5.11856L22.8775 7.12313L23.0655 7.53276L29.6171 0L40.9823 0.0056894L41.4268 0.979525L33.9749 9.54776L23.9838 9.54302L24.7188 11.1512L33.9749 13.8755L38.6909 24.2008L37.9881 25.0096L27.0872 21.7999L24.7188 16.6159L22.9724 20.4382L21.963 22.6485L20.7142 19.9167L23.471 13.8831L21.0247 8.52936L20.7807 7.9955L20.7142 7.84947L19.4654 5.11667L17.8605 1.60441C17.5177 0.85341 18.0666 0 18.8937 0L18.8928 0ZM32.9389 7.27958L37.2939 2.27197L30.6522 2.26817L26.2971 7.27579L32.9389 7.27958ZM28.7235 19.9176L35.0946 21.7932L32.3378 15.7587L25.9676 13.8831L28.7235 19.9176Z" fill="#6B71FD"/>
<path d="M21.5008 0.663763C21.685 0.258868 22.0896 0 22.534 0C23.3611 0 23.91 0.85341 23.5672 1.60441L21.9614 5.11856L20.7135 2.38575L21.5008 0.663763ZM16.708 11.1512L17.443 9.54302L7.45184 9.54776L3.05176e-05 0.979525L0.44446 0.0056894L11.8097 0L18.3613 7.53276L18.7601 6.65849L20.0089 9.3913L17.9567 13.8831L20.5616 19.5858L20.7126 19.9167L21.9614 22.6485L23.2158 25.3956C23.5596 26.1466 23.0098 27 22.1826 27C21.7382 27 21.3346 26.7411 21.1494 26.3372L20.7126 25.3804L20.177 24.2074H20.176L19.4638 22.6495L16.707 16.6159L14.3386 21.7999L3.43772 25.0096L2.73499 24.2008L7.45089 13.8755L16.707 11.1512H16.708ZM10.7746 2.26817L4.13285 2.27197L8.4879 7.27958L15.1297 7.27579L10.7746 2.26817ZM12.7033 19.9176L15.4592 13.8831L9.08901 15.7587L6.33222 21.7932L12.7033 19.9176Z" fill="#3DFFB5"/>
<path d="M56.2554 4.50146L47.4263 23.8235H51.6206L53.1686 19.9967H61.073L62.6045 23.8235H66.7971L57.9679 4.50146H56.2573H56.2554ZM54.2798 17.2466L57.1418 10.1751L59.971 17.2466H54.2798Z" fill="white"/>
<path d="M72.1666 3.17651H68.9409V23.8234H72.1666V3.17651Z" fill="white"/>
<path d="M79.4552 3.17651H76.2295V23.8234H79.4552V3.17651Z" fill="white"/>
<path d="M83.9566 7.3901C84.3111 7.59266 84.6894 7.69303 85.1171 7.69303C85.7549 7.69303 86.2904 7.46857 86.751 7.0087C87.2134 6.54882 87.4363 6.03419 87.4363 5.43563C87.4363 4.80056 87.2134 4.27864 86.7546 3.83702C86.2922 3.39356 85.7568 3.17822 85.1171 3.17822C84.6967 3.17822 84.3056 3.28042 83.9566 3.48116C83.6057 3.68372 83.3205 3.95928 83.1104 4.30054C82.902 4.63814 82.7979 5.01955 82.7979 5.43745C82.7979 5.81886 82.9039 6.19296 83.114 6.55064C83.3242 6.91015 83.6075 7.19301 83.9566 7.39375V7.3901Z" fill="white"/>
<path d="M82.3247 12.166H83.5181V23.8234H86.7146V12.166H87.908V9.50525H82.3247V12.166Z" fill="white"/>
<path d="M99.4011 4.50146H97.6905L88.8613 23.8235H93.0557L94.6037 19.9967H102.508L104.04 23.8235H108.232L99.403 4.50146H99.4011ZM95.7148 17.2466L98.5769 10.1751L101.406 17.2466H95.7148Z" fill="white"/>
</svg>
