
<svg width="21" height="21" viewBox="0 0 21 21" fill="none" xmlns="http://www.w3.org/2000/svg">
<g id="ChatDots" clip-path="url(#clip0_97_774)">
<path id="Vector" d="M4.02734 18.4773C3.93631 18.5539 3.82531 18.6029 3.70739 18.6186C3.58947 18.6343 3.46952 18.616 3.36164 18.5659C3.25376 18.5158 3.16242 18.4359 3.09836 18.3356C3.0343 18.2354 3.00018 18.119 3 18V5.5C3 5.33424 3.06585 5.17527 3.18306 5.05806C3.30027 4.94085 3.45924 4.875 3.625 4.875H17.375C17.5408 4.875 17.6997 4.94085 17.8169 5.05806C17.9342 5.17527 18 5.33424 18 5.5V15.5C18 15.6658 17.9342 15.8247 17.8169 15.9419C17.6997 16.0592 17.5408 16.125 17.375 16.125H6.94531C6.79808 16.125 6.6556 16.1771 6.54297 16.2719L4.02734 18.4773Z" stroke="white" stroke-width="1.5" stroke-linecap="round" stroke-linejoin="round"/>
<path id="Vector_2" d="M10.5 11.4375C11.0178 11.4375 11.4375 11.0178 11.4375 10.5C11.4375 9.98223 11.0178 9.5625 10.5 9.5625C9.98223 9.5625 9.5625 9.98223 9.5625 10.5C9.5625 11.0178 9.98223 11.4375 10.5 11.4375Z" fill="white"/>
<path id="Vector_3" d="M7.0625 11.4375C7.58027 11.4375 8 11.0178 8 10.5C8 9.98223 7.58027 9.5625 7.0625 9.5625C6.54473 9.5625 6.125 9.98223 6.125 10.5C6.125 11.0178 6.54473 11.4375 7.0625 11.4375Z" fill="white"/>
<path id="Vector_4" d="M13.9375 11.4375C14.4553 11.4375 14.875 11.0178 14.875 10.5C14.875 9.98223 14.4553 9.5625 13.9375 9.5625C13.4197 9.5625 13 9.98223 13 10.5C13 11.0178 13.4197 11.4375 13.9375 11.4375Z" fill="white"/>
</g>
<defs>
<clipPath id="clip0_97_774">
<rect width="20" height="20" fill="white" transform="translate(0.5 0.5)"/>
</clipPath>
</defs>
</svg>