
<svg width="20" height="21" viewBox="0 0 20 21" fill="none" xmlns="http://www.w3.org/2000/svg">
<g id="ThumbsDown" clip-path="url(#clip0_182_875)">
<path id="Vector" d="M2.5 4.25H6.25V12.375H2.5C2.33424 12.375 2.17527 12.3092 2.05806 12.1919C1.94085 12.0747 1.875 11.9158 1.875 11.75V4.875C1.875 4.70924 1.94085 4.55027 2.05806 4.43306C2.17527 4.31585 2.33424 4.25 2.5 4.25Z" stroke="#737373" stroke-width="1.25" stroke-linecap="round" stroke-linejoin="round"/>
<path id="Vector_2" d="M6.25 12.375L9.375 18.625C10.038 18.625 10.6739 18.3616 11.1428 17.8928C11.6116 17.4239 11.875 16.788 11.875 16.125V14.25H16.875C17.0523 14.25 17.2276 14.2122 17.3892 14.1392C17.5508 14.0662 17.695 13.9597 17.8123 13.8267C17.9295 13.6937 18.0172 13.5372 18.0693 13.3678C18.1215 13.1983 18.137 13.0197 18.1148 12.8438L17.1773 5.34375C17.1393 5.04174 16.9923 4.76399 16.7641 4.56262C16.5358 4.36124 16.2419 4.25009 15.9375 4.25H6.25" stroke="#737373" stroke-width="1.25" stroke-linecap="round" stroke-linejoin="round"/>
</g>
<defs>
<clipPath id="clip0_182_875">
<rect width="20" height="20" fill="white" transform="translate(0 0.5)"/>
</clipPath>
</defs>
</svg>
