<svg width="49" height="50" viewBox="0 0 49 50" fill="none" xmlns="http://www.w3.org/2000/svg">
    <path d="M0 25.11V41.4025C0 43.3125 0.77 45.3275 2 46.72C3.2525 48.1375 5.385 49.25 7.7175 48.0775C9.4575 47.2025 10.905 47.17 12.0825 47.96C14.8975 49.8475 18.8525 49.8475 21.6675 47.96C22.53 47.385 23.185 47.19 23.73 47.185C24.275 47.1825 24.9425 47.365 25.83 47.96C28.6475 49.8475 32.6025 49.8475 35.4175 47.96C35.95 47.605 36.8675 47.3675 38.0275 47.395C39.1625 47.42 40.2725 47.695 41.0325 48.0775C43.365 49.25 45.4975 48.1375 46.75 46.72C47.98 45.3275 48.75 43.3125 48.75 41.405V25.11C48.75 11.5975 37.845 0.625 24.375 0.625C10.905 0.625 0 11.5975 0 25.11ZM36.29 27.445C36.6355 27.8022 36.8252 28.2819 36.8172 28.7788C36.8092 29.2757 36.6043 29.7491 36.2475 30.095C35.8188 30.5115 35.3717 30.9086 34.9075 31.285L35.4525 32.3975C36.0846 33.7333 36.1657 35.2642 35.6782 36.6593C35.1906 38.0544 34.1737 39.2016 32.8471 39.8529C31.5205 40.5042 29.9909 40.6073 28.589 40.1399C27.187 39.6724 26.0253 38.6721 25.355 37.355L24.6725 35.9625C21.5263 36.5753 18.2849 36.5011 15.17 35.745C14.694 35.6185 14.2868 35.3098 14.0366 34.8856C13.7863 34.4613 13.7131 33.9557 13.8326 33.4778C13.9521 33 14.2549 32.5884 14.6754 32.332C15.0959 32.0756 15.6005 31.995 16.08 32.1075C18.905 32.815 22.1525 32.825 25.445 31.9425C28.7375 31.06 31.545 29.43 33.64 27.4025C33.9972 27.057 34.4769 26.8673 34.9738 26.8753C35.4707 26.8833 35.9441 27.0882 36.29 27.445ZM28.7225 35.7025L28.355 34.955C29.5567 34.5217 30.695 34.005 31.77 33.405L32.0875 34.05C32.2863 34.4936 32.3051 34.997 32.1399 35.4541C31.9747 35.9112 31.6384 36.2864 31.202 36.5004C30.7656 36.7144 30.2631 36.7505 29.8005 36.6012C29.3379 36.4519 28.9514 36.1313 28.7225 35.7025ZM17.6975 20L17.955 21.2225C18.0124 21.4657 18.0207 21.7179 17.9792 21.9643C17.9378 22.2107 17.8476 22.4463 17.7138 22.6573C17.58 22.8684 17.4054 23.0505 17.2002 23.1931C16.9951 23.3357 16.7635 23.4358 16.519 23.4877C16.2746 23.5395 16.0223 23.5419 15.7769 23.4949C15.5315 23.4478 15.298 23.3521 15.0901 23.2135C14.8822 23.0749 14.7042 22.8962 14.5663 22.6878C14.4285 22.4794 14.3337 22.2456 14.2875 22L14.0275 20.7775C13.9701 20.5343 13.9618 20.2821 14.0033 20.0357C14.0447 19.7893 14.1349 19.5537 14.2687 19.3427C14.4025 19.1316 14.5771 18.9495 14.7823 18.8069C14.9874 18.6643 15.219 18.5642 15.4635 18.5123C15.7079 18.4605 15.9602 18.4581 16.2056 18.5051C16.451 18.5522 16.6845 18.6479 16.8924 18.7865C17.1003 18.9251 17.2784 19.1038 17.4162 19.3122C17.554 19.5206 17.6488 19.7544 17.695 20M27.695 15.955C27.936 15.9036 28.1847 15.9003 28.427 15.9451C28.6693 15.99 28.9003 16.0821 29.107 16.2163C29.3136 16.3505 29.4918 16.5242 29.6313 16.7273C29.7708 16.9304 29.8689 17.159 29.92 17.4L30.18 18.6225C30.2356 18.8649 30.2424 19.116 30.2 19.3611C30.1576 19.6062 30.0669 19.8404 29.9331 20.0501C29.7993 20.2598 29.6252 20.4408 29.4208 20.5825C29.2163 20.7242 28.9858 20.8239 28.7425 20.8756C28.4992 20.9273 28.248 20.9302 28.0037 20.8839C27.7593 20.8376 27.5265 20.7432 27.319 20.6061C27.1114 20.469 26.9333 20.292 26.7948 20.0853C26.6563 19.8787 26.5604 19.6466 26.5125 19.4025L26.2525 18.1775C26.1495 17.6912 26.2439 17.1839 26.5149 16.7671C26.7858 16.3503 27.2112 16.0582 27.6975 15.955" fill="white"/>
</svg>