
<svg width="20" height="21" viewBox="0 0 20 21" fill="none" xmlns="http://www.w3.org/2000/svg">
<g id="Component 4" clip-path="url(#clip0_182_871)">
<path id="Vector" d="M2.5 8.625H6.25V16.75H2.5C2.33424 16.75 2.17527 16.6842 2.05806 16.5669C1.94085 16.4497 1.875 16.2908 1.875 16.125V9.25C1.875 9.08424 1.94085 8.92527 2.05806 8.80806C2.17527 8.69085 2.33424 8.625 2.5 8.625Z" stroke="#737373" stroke-width="1.25" stroke-linecap="round" stroke-linejoin="round"/>
<path id="Vector_2" d="M6.25 8.625L9.375 2.375C10.038 2.375 10.6739 2.63839 11.1428 3.10723C11.6116 3.57607 11.875 4.21196 11.875 4.875V6.75H16.875C17.0523 6.75005 17.2276 6.78782 17.3892 6.86081C17.5508 6.9338 17.695 7.04033 17.8123 7.17333C17.9295 7.30634 18.0172 7.46277 18.0693 7.63223C18.1215 7.8017 18.137 7.98033 18.1148 8.15625L17.1773 15.6562C17.1393 15.9583 16.9923 16.236 16.7641 16.4374C16.5358 16.6388 16.2419 16.7499 15.9375 16.75H6.25" stroke="#737373" stroke-width="1.25" stroke-linecap="round" stroke-linejoin="round"/>
</g>
<defs>
<clipPath id="clip0_182_871">
<rect width="20" height="20" fill="white" transform="translate(0 0.5)"/>
</clipPath>
</defs>
</svg>
