<svg width="437" height="431" viewBox="0 0 437 431" fill="none" xmlns="http://www.w3.org/2000/svg">
<g clip-path="url(#clip0_2_1992)">
<path d="M100.06 324.18L51.75 430.06H74.7L83.17 409.09H126.42L134.8 430.06H157.74L109.43 324.18H100.07H100.06ZM89.25 394.02L104.91 355.27L120.39 394.02H89.25Z" fill="white"/>
<path d="M187.12 316.92H169.47V430.06H187.12V316.92Z" fill="white"/>
<path d="M227 316.92H209.35V430.06H227V316.92Z" fill="white"/>
<path d="M251.63 340.01C253.57 341.12 255.64 341.67 257.98 341.67C261.47 341.67 264.4 340.44 266.92 337.92C269.45 335.4 270.67 332.58 270.67 329.3C270.67 325.82 269.45 322.96 266.94 320.54C264.41 318.11 261.48 316.93 257.98 316.93C255.68 316.93 253.54 317.49 251.63 318.59C249.71 319.7 248.15 321.21 247 323.08C245.86 324.93 245.29 327.02 245.29 329.31C245.29 331.4 245.87 333.45 247.02 335.41C248.17 337.38 249.72 338.93 251.63 340.03V340.01Z" fill="white"/>
<path d="M242.7 366.18H249.23V430.06H266.72V366.18H273.25V351.6H242.7V366.18Z" fill="white"/>
<path d="M336.14 324.18H326.78L278.47 430.06H301.42L309.89 409.09H353.14L361.52 430.06H384.46L336.15 324.18H336.14ZM315.97 394.02L331.63 355.27L347.11 394.02H315.97Z" fill="white"/>
<path d="M244.48 267.82L238.68 255.11L226.3 282.25C228.35 283.84 230.9 284.74 233.6 284.74C240.51 284.74 245.57 279.08 245.57 272.79C245.57 271.14 245.23 269.46 244.48 267.82ZM231.27 238.85L218.12 210.04L204.97 238.85L218.12 267.66L231.27 238.86V238.85ZM237.29 0C232.61 0 228.35 2.73 226.41 7L218.12 25.16L204.98 53.98L195.33 75.12L193.35 79.44L124.36 0L4.68 0.06L0 10.33L78.47 100.69L183.68 100.64L175.94 117.6L78.47 146.33L28.81 255.22L36.21 263.75L151 229.9L175.94 175.23L194.33 215.54L204.96 238.85L218.11 210.04L189.08 146.41L214.84 89.95L217.41 84.32L218.11 82.78L231.26 53.96L248.16 16.92C251.77 9 245.99 0 237.28 0L237.29 0ZM89.38 76.77L43.52 23.96L113.46 23.92L159.32 76.73L89.38 76.77ZM133.77 210.05L66.68 229.83L95.71 166.19L162.79 146.41L133.77 210.05Z" fill="#3DFFB5"/>
<path d="M209.83 7C207.89 2.73 203.63 0 198.95 0C190.24 0 184.46 9 188.07 16.92L204.98 53.98L218.12 25.16L209.83 7ZM260.3 117.6L252.56 100.64L357.77 100.69L436.24 10.33L431.56 0.06L311.88 0L242.89 79.44L238.69 70.22L225.54 99.04L247.15 146.41L219.72 206.55L218.13 210.04L204.98 238.85L191.77 267.82C188.15 275.74 193.94 284.74 202.65 284.74C207.33 284.74 211.58 282.01 213.53 277.75L218.13 267.66L223.77 255.29H223.78L231.28 238.86L260.31 175.23L285.25 229.9L400.04 263.75L407.44 255.22L357.78 146.33L260.31 117.6H260.3ZM322.78 23.92L392.72 23.96L346.86 76.77L276.92 76.73L322.78 23.92ZM302.47 210.05L273.45 146.41L340.53 166.19L369.56 229.83L302.47 210.05Z" fill="#6B71FD"/>
</g>
<defs>
<clipPath id="clip0_2_1992">
<rect width="436.24" height="430.06" fill="white"/>
</clipPath>
</defs>
</svg>
