<svg width="24" height="16" viewBox="0 0 24 16" fill="none" xmlns="http://www.w3.org/2000/svg">
<g id="Group 2">
<path id="Vector" d="M10.7266 15.0191L11.0415 14.3301L11.7136 15.8014C11.6023 15.8876 11.4639 15.9364 11.3173 15.9364C10.9421 15.9364 10.6674 15.6295 10.6674 15.2885C10.6674 15.1991 10.6859 15.108 10.7266 15.0191ZM11.4438 13.4486L12.1577 11.8867L12.8717 13.4486L12.1577 15.0104L11.4438 13.4491V13.4486ZM11.1169 0.5C11.371 0.5 11.6023 0.647999 11.7076 0.879485L12.1577 1.86398L12.8711 3.42637L13.3951 4.57241L13.5026 4.80661L17.2482 0.5L23.7459 0.503253L24 1.06001L19.7397 5.95862L14.0276 5.95591L14.4478 6.87535L19.7397 8.43286L22.4358 14.336L22.0341 14.7984L15.8018 12.9634L14.4478 9.99959L13.4493 12.1849L12.8722 13.4486L12.1583 11.8867L13.7344 8.4372L12.3358 5.37638L12.1963 5.07117L12.1583 4.98768L11.4443 3.42529L10.5268 1.41727C10.3308 0.987909 10.6446 0.5 11.1175 0.5L11.1169 0.5ZM19.1473 4.66186L21.6372 1.79892L17.84 1.79675L15.3501 4.6597L19.1473 4.66186ZM16.7373 11.8873L20.3798 12.9596L18.8037 9.50951L15.1617 8.4372L16.7373 11.8873Z" fill="#3DFFB5"/>
<path id="Vector_2" d="M12.6078 0.879485C12.7131 0.647999 12.9444 0.5 13.1985 0.5C13.6714 0.5 13.9852 0.987909 13.7892 1.41727L12.8711 3.42637L12.1577 1.86398L12.6078 0.879485ZM9.86768 6.87535L10.2879 5.95591L4.57579 5.95862L0.315465 1.06001L0.569553 0.503253L7.06727 0.5L10.8129 4.80661L11.0409 4.30678L11.7549 5.86917L10.5816 8.4372L12.0709 11.6975L12.1572 11.8867L12.8711 13.4486L13.5883 15.0191C13.7849 15.4485 13.4705 15.9364 12.9976 15.9364C12.7435 15.9364 12.5128 15.7884 12.4069 15.5574L12.1572 15.0104L11.851 14.3398H11.8504L11.4432 13.4491L9.86713 9.99959L8.51308 12.9634L2.28085 14.7984L1.87909 14.336L4.57525 8.43286L9.86713 6.87535H9.86768ZM6.47549 1.79675L2.67827 1.79892L5.16812 4.66186L8.96534 4.6597L6.47549 1.79675ZM7.57817 11.8873L9.15373 8.4372L5.5118 9.50951L3.93569 12.9596L7.57817 11.8873Z" fill="#6B71FD"/>
</g>
</svg>
