<svg xmlns="http://www.w3.org/2000/svg" width="18" height="18" viewBox="0 0 18 18" fill="none">
  <path d="M8.619 2.0918H5.81475C3.5085 2.0918 2.0625 3.72455 2.0625 6.03605V12.2715C2.0625 14.583 3.50175 16.2158 5.81475 16.2158H12.4327C14.7465 16.2158 16.1857 14.583 16.1857 12.2715V9.25055" stroke="#737373" stroke-width="1.5" stroke-linecap="round" stroke-linejoin="round"/>
  <path fill-rule="evenodd" clip-rule="evenodd" d="M6.62048 8.19062L12.2252 2.58587C12.9235 1.88837 14.0552 1.88837 14.7535 2.58587L15.6662 3.49862C16.3645 4.19687 16.3645 5.32937 15.6662 6.02687L10.0345 11.6586C9.72923 11.9639 9.31523 12.1356 8.88323 12.1356H6.07373L6.14423 9.30062C6.15473 8.88362 6.32498 8.48612 6.62048 8.19062Z" stroke="#737373" stroke-width="1.5" stroke-linecap="round" stroke-linejoin="round"/>
  <path d="M11.3735 3.4519L14.798 6.8764" stroke="#737373" stroke-width="1.5" stroke-linecap="round" stroke-linejoin="round"/>
</svg>