<svg width="67" height="67" viewBox="0 0 67 67" fill="none" xmlns="http://www.w3.org/2000/svg">
<g id="uil:robot">
<path id="Vector" d="M25.1248 41.8749C24.5727 41.8749 24.033 42.0386 23.5739 42.3454C23.1148 42.6521 22.757 43.0881 22.5457 43.5983C22.3344 44.1084 22.2791 44.6697 22.3868 45.2112C22.4945 45.7527 22.7604 46.2502 23.1508 46.6406C23.5413 47.031 24.0387 47.2969 24.5802 47.4046C25.1217 47.5123 25.6831 47.457 26.1932 47.2457C26.7033 47.0345 27.1393 46.6766 27.446 46.2176C27.7528 45.7585 27.9165 45.2187 27.9165 44.6666C27.9165 43.9262 27.6224 43.2161 27.0988 42.6926C26.5753 42.169 25.8652 41.8749 25.1248 41.8749ZM5.58317 39.0833C4.84277 39.0833 4.1327 39.3774 3.60916 39.9009C3.08562 40.4244 2.7915 41.1345 2.7915 41.8749V47.4582C2.7915 48.1986 3.08562 48.9087 3.60916 49.4323C4.1327 49.9558 4.84277 50.2499 5.58317 50.2499C6.32357 50.2499 7.03364 49.9558 7.55718 49.4323C8.08072 48.9087 8.37484 48.1986 8.37484 47.4582V41.8749C8.37484 41.1345 8.08072 40.4244 7.55718 39.9009C7.03364 39.3774 6.32357 39.0833 5.58317 39.0833ZM61.4165 39.0833C60.6761 39.0833 59.966 39.3774 59.4425 39.9009C58.919 40.4244 58.6248 41.1345 58.6248 41.8749V47.4582C58.6248 48.1986 58.919 48.9087 59.4425 49.4323C59.966 49.9558 60.6761 50.2499 61.4165 50.2499C62.1569 50.2499 62.867 49.9558 63.3905 49.4323C63.9141 48.9087 64.2082 48.1986 64.2082 47.4582V41.8749C64.2082 41.1345 63.9141 40.4244 63.3905 39.9009C62.867 39.3774 62.1569 39.0833 61.4165 39.0833ZM47.4582 19.5416H36.2915V15.9683C37.1354 15.4811 37.837 14.7815 38.3268 13.9392C38.8165 13.0968 39.0773 12.141 39.0832 11.1666C39.0832 9.68579 38.4949 8.26565 37.4478 7.21857C36.4008 6.17149 34.9806 5.58325 33.4998 5.58325C32.019 5.58325 30.5989 6.17149 29.5518 7.21857C28.5047 8.26565 27.9165 9.68579 27.9165 11.1666C27.9224 12.141 28.1832 13.0968 28.6729 13.9392C29.1627 14.7815 29.8643 15.4811 30.7082 15.9683V19.5416H19.5415C17.3203 19.5416 15.1901 20.4239 13.6195 21.9946C12.0489 23.5652 11.1665 25.6954 11.1665 27.9166V53.0416C11.1665 55.2628 12.0489 57.393 13.6195 58.9636C15.1901 60.5342 17.3203 61.4166 19.5415 61.4166H47.4582C49.6794 61.4166 51.8096 60.5342 53.3802 58.9636C54.9508 57.393 55.8332 55.2628 55.8332 53.0416V27.9166C55.8332 25.6954 54.9508 23.5652 53.3802 21.9946C51.8096 20.4239 49.6794 19.5416 47.4582 19.5416ZM38.3015 25.1249L36.9057 30.7083H30.094L28.6982 25.1249H38.3015ZM50.2498 53.0416C50.2498 53.782 49.9557 54.4921 49.4322 55.0156C48.9086 55.5391 48.1986 55.8332 47.4582 55.8332H19.5415C18.8011 55.8332 18.091 55.5391 17.5675 55.0156C17.044 54.4921 16.7498 53.782 16.7498 53.0416V27.9166C16.7498 27.1762 17.044 26.4661 17.5675 25.9426C18.091 25.419 18.8011 25.1249 19.5415 25.1249H22.9473L25.1248 34.1699C25.2777 34.7893 25.6381 35.3377 26.146 35.7237C26.654 36.1098 27.2788 36.3102 27.9165 36.2916H39.0832C39.7209 36.3102 40.3457 36.1098 40.8537 35.7237C41.3616 35.3377 41.722 34.7893 41.8748 34.1699L44.0523 25.1249H47.4582C48.1986 25.1249 48.9086 25.419 49.4322 25.9426C49.9557 26.4661 50.2498 27.1762 50.2498 27.9166V53.0416ZM41.8748 41.8749C41.3227 41.8749 40.783 42.0386 40.3239 42.3454C39.8648 42.6521 39.507 43.0881 39.2957 43.5983C39.0844 44.1084 39.0291 44.6697 39.1368 45.2112C39.2445 45.7527 39.5104 46.2502 39.9008 46.6406C40.2913 47.031 40.7887 47.2969 41.3302 47.4046C41.8717 47.5123 42.4331 47.457 42.9432 47.2457C43.4533 47.0345 43.8893 46.6766 44.196 46.2176C44.5028 45.7585 44.6665 45.2187 44.6665 44.6666C44.6665 43.9262 44.3724 43.2161 43.8488 42.6926C43.3253 42.169 42.6152 41.8749 41.8748 41.8749Z" fill="#3DFFB5"/>
</g>
</svg>
