<svg width="18" height="18" viewBox="0 0 18 18" fill="none" xmlns="http://www.w3.org/2000/svg">
<g id="Send">
<path id="Fill 1" d="M16.8561 1.14854C16.4395 0.722708 15.8228 0.565208 15.2478 0.731875L1.83948 4.60604C1.23281 4.77438 0.802809 5.25521 0.686976 5.86521C0.568643 6.48688 0.981976 7.27688 1.52198 7.60688L5.71448 10.1669C6.14448 10.4302 6.69948 10.3644 7.05531 10.0077L11.8561 5.20688C12.0978 4.95604 12.4978 4.95604 12.7395 5.20688C12.9811 5.44771 12.9811 5.84021 12.7395 6.09021L7.93031 10.891C7.57364 11.2477 7.50698 11.801 7.76948 12.2319L10.3311 16.4402C10.6311 16.9394 11.1478 17.2235 11.7145 17.2235C11.7811 17.2235 11.8561 17.2235 11.9228 17.2144C12.5728 17.1319 13.0895 16.6894 13.2811 16.0644L17.2561 2.75688C17.4311 2.19021 17.2728 1.57354 16.8561 1.14854" fill="white"/>
<path id="Combined Shape" opacity="0.4" fill-rule="evenodd" clip-rule="evenodd" d="M1.5087 13.0065C1.3487 13.0065 1.1887 12.9457 1.06704 12.8232C0.822869 12.579 0.822869 12.184 1.06704 11.9399L2.20454 10.8015C2.4487 10.5582 2.84454 10.5582 3.0887 10.8015C3.33204 11.0457 3.33204 11.4415 3.0887 11.6857L1.95037 12.8232C1.8287 12.9457 1.6687 13.0065 1.5087 13.0065ZM4.64304 14.0002C4.48304 14.0002 4.32304 13.9394 4.20137 13.8169C3.9572 13.5727 3.9572 13.1777 4.20137 12.9335L5.33887 11.7952C5.58304 11.5519 5.97887 11.5519 6.22304 11.7952C6.46637 12.0394 6.46637 12.4352 6.22304 12.6794L5.0847 13.8169C4.96304 13.9394 4.80304 14.0002 4.64304 14.0002ZM4.85445 16.9735C4.97612 17.096 5.13612 17.1569 5.29612 17.1569C5.45612 17.1569 5.61612 17.096 5.73779 16.9735L6.87612 15.836C7.11945 15.5919 7.11945 15.196 6.87612 14.9519C6.63195 14.7085 6.23612 14.7085 5.99195 14.9519L4.85445 16.0902C4.61029 16.3344 4.61029 16.7294 4.85445 16.9735Z" fill="white"/>
</g>
</svg>
