<svg width="60" height="60" viewBox="0 0 60 60" fill="none" xmlns="http://www.w3.org/2000/svg">
<g id="solar:share-bold">
<path id="Vector" fill-rule="evenodd" clip-rule="evenodd" d="M34.5075 13.3325C34.5075 8.73253 38.2575 5.00003 42.8775 5.00003C43.9745 4.99707 45.0613 5.21029 46.0758 5.6275C47.0903 6.0447 48.0127 6.65773 48.7902 7.43154C49.5677 8.20535 50.1852 9.12478 50.6072 10.1373C51.0293 11.1498 51.2477 12.2356 51.25 13.3325C51.25 17.935 47.5 21.6675 42.8775 21.6675C41.769 21.6683 40.6715 21.4491 39.6484 21.0225C38.6253 20.596 37.6971 19.9705 36.9175 19.1825L25.33 27.0725C25.6521 28.6801 25.4939 30.3468 24.875 31.865L37.58 40.215C39.0768 38.9953 40.9492 38.3303 42.88 38.3325C43.977 38.3299 45.0637 38.5434 46.0781 38.961C47.0925 39.3785 48.0147 39.9918 48.792 40.7658C49.5693 41.5398 50.1864 42.4595 50.6082 43.4721C51.0299 44.4847 51.248 45.5706 51.25 46.6675C51.25 51.2675 47.5 55 42.8775 55C41.7808 55.0027 40.6942 54.7892 39.68 54.3718C38.6658 53.9545 37.7437 53.3414 36.9664 52.5676C36.1892 51.7939 35.5719 50.8745 35.15 49.8622C34.7281 48.8498 34.5098 47.7643 34.5075 46.6675C34.5056 45.4991 34.7518 44.3436 35.23 43.2775L22.625 35C21.0981 36.3265 19.1426 37.0556 17.12 37.0525C16.023 37.0552 14.9363 36.8416 13.9219 36.4241C12.9075 36.0066 11.9853 35.3933 11.208 34.6193C10.4307 33.8452 9.81358 32.9256 9.39182 31.913C8.97006 30.9003 8.75197 29.8145 8.75 28.7175C8.7523 27.6208 8.97063 26.5352 9.39254 25.5229C9.81444 24.5105 10.4317 23.5912 11.2089 22.8174C11.9862 22.0436 12.9083 21.4306 13.9225 21.0132C14.9367 20.5959 16.0233 20.3824 17.12 20.385C19.78 20.385 22.145 21.6175 23.6775 23.5375L34.91 15.89C34.6421 15.064 34.5062 14.2009 34.5075 13.3325Z" fill="#3DFFB5"/>
</g>
</svg>
