<svg width="46" height="46" viewBox="0 0 46 46" fill="none" xmlns="http://www.w3.org/2000/svg">
<g id="Group 24">
<path id="Vector" d="M28 35.5H10.5V30.5H28M35.5 25.5H10.5V20.5H35.5M35.5 15.5H10.5V10.5H35.5M40.5 0.5H5.5C2.725 0.5 0.5 2.725 0.5 5.5V40.5C0.5 41.8261 1.02678 43.0979 1.96447 44.0355C2.90215 44.9732 4.17392 45.5 5.5 45.5H40.5C41.8261 45.5 43.0979 44.9732 44.0355 44.0355C44.9732 43.0979 45.5 41.8261 45.5 40.5V5.5C45.5 4.17392 44.9732 2.90215 44.0355 1.96447C43.0979 1.02678 41.8261 0.5 40.5 0.5Z" fill="white"/>
</g>
</svg>
