<svg width="46" height="30" viewBox="0 0 46 30" fill="none" xmlns="http://www.w3.org/2000/svg">
<path id="Vector" d="M35.5 11.25V2.5C35.5 1.83696 35.2366 1.20107 34.7678 0.732234C34.2989 0.263393 33.663 0 33 0H3C2.33696 0 1.70107 0.263393 1.23223 0.732234C0.763392 1.20107 0.5 1.83696 0.5 2.5V27.5C0.5 28.163 0.763392 28.7989 1.23223 29.2678C1.70107 29.7366 2.33696 30 3 30H33C33.663 30 34.2989 29.7366 34.7678 29.2678C35.2366 28.7989 35.5 28.163 35.5 27.5V18.75L45.5 28.75V1.25L35.5 11.25Z" fill="white"/>
</svg>
