<svg width="60" height="60" viewBox="0 0 60 60" fill="none" xmlns="http://www.w3.org/2000/svg">
<g id="tabler:world">
<g id="Group">
<path id="Vector" d="M9 22.5H51M9 37.5H51M7.5 30C7.5 32.9547 8.08198 35.8806 9.21271 38.6104C10.3434 41.3402 12.0008 43.8206 14.0901 45.9099C16.1794 47.9992 18.6598 49.6566 21.3896 50.7873C24.1194 51.918 27.0453 52.5 30 52.5C32.9547 52.5 35.8806 51.918 38.6104 50.7873C41.3402 49.6566 43.8206 47.9992 45.9099 45.9099C47.9992 43.8206 49.6566 41.3402 50.7873 38.6104C51.918 35.8806 52.5 32.9547 52.5 30C52.5 24.0326 50.1295 18.3097 45.9099 14.0901C41.6903 9.87053 35.9674 7.5 30 7.5C24.0326 7.5 18.3097 9.87053 14.0901 14.0901C9.87053 18.3097 7.5 24.0326 7.5 30Z" stroke="#3DFFB5" stroke-width="6" stroke-linecap="round" stroke-linejoin="round"/>
<path id="Vector_2" d="M28.7499 7.5C24.5383 14.249 22.3054 22.0447 22.3054 30C22.3054 37.9553 24.5383 45.751 28.7499 52.5M31.2499 7.5C35.4616 14.249 37.6944 22.0447 37.6944 30C37.6944 37.9553 35.4616 45.751 31.2499 52.5" stroke="#3DFFB5" stroke-width="6" stroke-linecap="round" stroke-linejoin="round"/>
</g>
</g>
</svg>
